<svg id="圖層_1" data-name="圖層 1" xmlns="http://www.w3.org/2000/svg" viewBox="0 0 20 16"><defs><style>.cls-1{fill:#376dce;}</style></defs><path class="cls-1" d="M12.92,10.42l-2.41,2.42-.25.24,0,.35L10,15.33a1.51,1.51,0,0,0,.08.67H1.5A1.5,1.5,0,0,1,0,14.5V13.2A4.2,4.2,0,0,1,4.2,9h.52A5.45,5.45,0,0,0,9.28,9H9.8A4.16,4.16,0,0,1,12.92,10.42ZM3,4A4,4,0,1,1,7,8,4,4,0,0,1,3,4ZM15.52,9.23l2.25,2.25-4.31,4.3L11.55,16a.5.5,0,0,1-.55-.55l.22-1.91Zm4.26.23-1.3,1.31L16.23,8.53l.13-.13,1.18-1.18a.75.75,0,0,1,1.06,0L19.78,8.4A.75.75,0,0,1,19.78,9.46Z"/></svg>