<svg id="圖層_1" data-name="圖層 1" xmlns="http://www.w3.org/2000/svg" viewBox="0 0 22 16.5"><defs><style>.cls-1{fill:#376dce;}</style></defs><path class="cls-1" d="M22,14.44v1.37a.69.69,0,0,1-.69.69H1.38A1.38,1.38,0,0,1,0,15.12V.69A.69.69,0,0,1,.69,0H2.06a.69.69,0,0,1,.69.69V13.75H21.31A.69.69,0,0,1,22,14.44Zm-16.5-4v-3a.58.58,0,0,1,.55-.54H7.7a.58.58,0,0,1,.55.54v3A.58.58,0,0,1,7.7,11H6.05A.58.58,0,0,1,5.5,10.45Zm4.12,0V1.92a.59.59,0,0,1,.55-.54h1.66a.59.59,0,0,1,.55.54v8.53a.59.59,0,0,1-.55.55H10.17A.59.59,0,0,1,9.62,10.45Zm4.13,0V4.67a.59.59,0,0,1,.55-.55H16a.59.59,0,0,1,.55.55v5.78A.58.58,0,0,1,16,11H14.3A.58.58,0,0,1,13.75,10.45Zm4.13,0V.55A.58.58,0,0,1,18.42,0h1.66a.58.58,0,0,1,.54.55v9.9a.58.58,0,0,1-.54.55H18.42A.58.58,0,0,1,17.88,10.45Z"/></svg>