<svg id="圖層_1" data-name="圖層 1" xmlns="http://www.w3.org/2000/svg" viewBox="0 0 42 49"><defs><style>.cls-1{fill:#376dce;}</style></defs><path class="cls-1" d="M21,49a6.07,6.07,0,0,0,6-6.13H15A6.07,6.07,0,0,0,21,49ZM41.19,34.67c-1.81-2-5.2-5-5.2-14.76A15,15,0,0,0,24,5.06v-2a3,3,0,1,0-6,0v2A15,15,0,0,0,6,19.91C6,29.7,2.62,32.69.81,34.67A3.07,3.07,0,0,0,0,36.75a3,3,0,0,0,3,3.06H39a3,3,0,0,0,3-3.06,3.07,3.07,0,0,0-.81-2.08ZM21,33.69a3.07,3.07,0,1,1,3-3.07A3,3,0,0,1,21,33.69Zm2.38-10.57a1.52,1.52,0,0,1-1.49,1.38H20.11a1.51,1.51,0,0,1-1.49-1.38l-1.2-9.19a1.52,1.52,0,0,1,1.35-1.67h4.32a1.52,1.52,0,0,1,1.5,1.53c0,.05,0,.1,0,.15Z"/></svg>