<svg id="圖層_1" data-name="圖層 1" xmlns="http://www.w3.org/2000/svg" viewBox="0 0 35 47"><defs><style>.cls-1{fill:#00b2f4;}</style></defs><path class="cls-1" d="M30.63,5.88h-7.3a5.83,5.83,0,1,0-11.66,0H4.38A4.39,4.39,0,0,0,0,10.28V42.59A4.39,4.39,0,0,0,4.38,47H30.63A4.39,4.39,0,0,0,35,42.59V10.28A4.39,4.39,0,0,0,30.63,5.88ZM17.5,3.67a2.21,2.21,0,1,1-2.19,2.21A2.19,2.19,0,0,1,17.5,3.67ZM28.55,25l-13,13A1.09,1.09,0,0,1,14,38L6.43,30.31a1.12,1.12,0,0,1,0-1.56L9,26.16a1.09,1.09,0,0,1,1.55,0l4.19,4.26,9.67-9.66a1.09,1.09,0,0,1,1.55,0l2.57,2.61A1.11,1.11,0,0,1,28.55,25Z"/></svg>