<svg id="圖層_1" data-name="圖層 1" xmlns="http://www.w3.org/2000/svg" viewBox="0 0 49.99 44"><defs><style>.cls-1{fill:#376dce;}</style></defs><path class="cls-1" d="M18.93,36.45a1,1,0,0,0-1.75,0l-.66,1.32A1.39,1.39,0,0,1,14,37.56L12.5,33.22,11.58,36A3.76,3.76,0,0,1,8,38.5H6.94a1.38,1.38,0,1,1,0-2.75H8a1,1,0,0,0,.92-.66l1.58-4.69a2.09,2.09,0,0,1,4,0L15.68,34a3.91,3.91,0,0,1,5.72,1.22,1,1,0,0,0,.82.54V28.67l11.1-10.92v-4H21.52a2.08,2.08,0,0,1-2.08-2.06V0H2.08A2.07,2.07,0,0,0,0,2.06V41.94A2.07,2.07,0,0,0,2.08,44H31.24a2.06,2.06,0,0,0,2.08-2.06V38.5H22.22A3.75,3.75,0,0,1,18.93,36.45Zm14.39-26A2,2,0,0,0,32.72,9L24.22.6A2.07,2.07,0,0,0,22.75,0h-.53V11h11.1ZM25,29.82v5.93h6l14-14-5.89-5.83ZM49.34,14.38l-2.77-2.74a2.23,2.23,0,0,0-3.12,0L41.08,14,47,19.82l2.37-2.35a2.17,2.17,0,0,0,0-3.09Z"/></svg>