<svg id="圖層_1" data-name="圖層 1" xmlns="http://www.w3.org/2000/svg" viewBox="0 0 16.5 22"><defs><style>.cls-1{fill:#376dce;}</style></defs><path class="cls-1" d="M16.5,5.67V19.94A2.07,2.07,0,0,1,14.43,22H2.06A2.06,2.06,0,0,1,0,19.94V2.07A2.07,2.07,0,0,1,2.06,0h8.77a2.06,2.06,0,0,1,1.46.61l3.6,3.6A2.08,2.08,0,0,1,16.5,5.67ZM14.44,7.56H10a1,1,0,0,1-1-1V2.07H2.06V19.94H14.44Zm-11-3.09V3.78a.34.34,0,0,1,.34-.34H7.22a.34.34,0,0,1,.34.34v.69a.34.34,0,0,1-.34.34H3.78A.34.34,0,0,1,3.44,4.47Zm0,2.75V6.53a.34.34,0,0,1,.34-.34H7.22a.34.34,0,0,1,.34.34v.69a.34.34,0,0,1-.34.34H3.78A.34.34,0,0,1,3.44,7.22Zm.68,2.4h8.26a.69.69,0,0,1,.68.69v4.13a.68.68,0,0,1-.68.68H4.12a.68.68,0,0,1-.68-.68V10.31A.69.69,0,0,1,4.12,9.62Zm.69,4.13h6.88V11H4.81Zm8.25,3.78v.69a.34.34,0,0,1-.34.34H9.28a.34.34,0,0,1-.34-.34v-.69a.34.34,0,0,1,.34-.34h3.44A.34.34,0,0,1,13.06,17.53ZM11,5.5h3.27L11,2.23Z"/></svg>