<svg id="圖層_1" data-name="圖層 1" xmlns="http://www.w3.org/2000/svg" viewBox="0 0 289.86 28.17"><defs><style>.cls-1{fill:#27457c;}</style></defs><path class="cls-1" d="M12.12,28.14a1.64,1.64,0,0,1-1.86-1.86v-7.5H2a1.91,1.91,0,0,1-1.41-.54A1.91,1.91,0,0,1,0,16.83V7.26A1.91,1.91,0,0,1,.54,5.85,1.91,1.91,0,0,1,2,5.31h8.31V2A1.64,1.64,0,0,1,12.12.12,1.64,1.64,0,0,1,14,2V5.31h8.49a1.85,1.85,0,0,1,2,2v9.57a1.85,1.85,0,0,1-2,2H14v7.5A1.64,1.64,0,0,1,12.12,28.14ZM4.29,15.27h6V8.82h-6a.64.64,0,0,0-.72.72v5A.64.64,0,0,0,4.29,15.27Zm9.69,0h6a.64.64,0,0,0,.72-.72v-5A.64.64,0,0,0,20,8.82H14Z"/><path class="cls-1" d="M34.41,20.88a2,2,0,0,1-1.44-.3,2.18,2.18,0,0,1-1.17-1.17,1.94,1.94,0,0,1,.45-1.56,30.42,30.42,0,0,0,3-8.55,1.77,1.77,0,0,1,2.34-1.59,1.7,1.7,0,0,1,1.59,2.34q-.66,2.7-1.5,5.13A27.4,27.4,0,0,1,35.52,20,2,2,0,0,1,34.41,20.88Zm4.14,5.76q-.81-2.28,2.28-2.16l1.17,0h.48q.9,0,.9-.78V2.43A1.68,1.68,0,0,1,45.3.54a1.67,1.67,0,0,1,1.89,1.89V23.67a6,6,0,0,1-.4,2.48,2.62,2.62,0,0,1-1.4,1.27,12.4,12.4,0,0,1-4.11.66Q39.09,28.14,38.55,26.64Zm17.52-5.31a1.74,1.74,0,0,1-.9-1.38c-.36-1.34-.86-2.84-1.48-4.49S52.27,12,51.33,10.11a1.57,1.57,0,0,1,1-2.46,1.75,1.75,0,0,1,2.4.87A50.86,50.86,0,0,1,59.13,19,1.65,1.65,0,0,1,59,20.34a2.55,2.55,0,0,1-1.2.81A2.33,2.33,0,0,1,56.07,21.33Z"/><path class="cls-1" d="M65.13,12.81q-1.23-1.56.81-2.73A33.62,33.62,0,0,0,71.4,5.73,29,29,0,0,0,75.48.93a1.86,1.86,0,0,1,.78-.66A2.52,2.52,0,0,1,77.4,0h1a2.29,2.29,0,0,1,2,1,34.52,34.52,0,0,0,5.13,5.43,31.12,31.12,0,0,0,4.92,3.39,2.27,2.27,0,0,1,1.28,1.21,2,2,0,0,1-.53,1.64,1.79,1.79,0,0,1-2.7.42,43.61,43.61,0,0,1-5.91-4.56,31.62,31.62,0,0,1-4.56-5,30,30,0,0,1-4.33,5,40.67,40.67,0,0,1-5.9,4.61Q66.15,14.13,65.13,12.81Zm2,14.52a1.43,1.43,0,0,1-1.62-1.62,1.43,1.43,0,0,1,1.62-1.62h1.62V15.42a1.74,1.74,0,1,1,3.48,0v8.67H76.5V10.35a1.85,1.85,0,0,1,3.69,0v4.59h6.42a1.38,1.38,0,0,1,1.56,1.56,1.39,1.39,0,0,1-1.56,1.59H80.19v6h9a1.43,1.43,0,0,1,1.62,1.62,1.43,1.43,0,0,1-1.62,1.62h-22Z"/><path class="cls-1" d="M111.15,28.14a1.52,1.52,0,0,1-1.74-1.71V22.92a26.54,26.54,0,0,1-8.49,4.44,2,2,0,0,1-2.31-.69q-.75-1-.42-1.59t1.56-.9a28.6,28.6,0,0,0,6.84-2.88H99.51A1.3,1.3,0,0,1,98,19.83a1.3,1.3,0,0,1,1.47-1.47h9.9V17h-7.29a1.14,1.14,0,0,1-1.29-1.29,1.14,1.14,0,0,1,1.29-1.29h7.29V13.11h-8.67a1.23,1.23,0,0,1-1.38-1.41,1.22,1.22,0,0,1,1.38-1.38H105a12.75,12.75,0,0,0-.9-2.1q-.15-.24.15-.3H99.57a1.29,1.29,0,0,1-1.44-1.47A1.27,1.27,0,0,1,99.57,5h2.55a14.8,14.8,0,0,0-1-2.13A1.37,1.37,0,0,1,102,.69a1.58,1.58,0,0,1,2,.72,20.39,20.39,0,0,1,1,1.83,1.2,1.2,0,0,1,0,1,1.38,1.38,0,0,1-.86.71l-.09,0h2.7V1.77a1.65,1.65,0,1,1,3.3,0V5h2.22V1.77a1.67,1.67,0,0,1,3.33,0V5h2.64l-.63-.18q-.45-.15-.24-.54a19.4,19.4,0,0,0,1-2.28,2.26,2.26,0,0,1,.86-1.19,1.81,1.81,0,0,1,1.39-.1q2.07.48.81,2.61l-1,1.68h2.43a1.27,1.27,0,0,1,1.44,1.44,1.29,1.29,0,0,1-1.44,1.47h-4.17q-.57,1.11-1.38,2.4h4.44a1.22,1.22,0,0,1,1.38,1.38,1.23,1.23,0,0,1-1.38,1.41h-8.94v1.35h7.62a1.14,1.14,0,0,1,1.29,1.29A1.14,1.14,0,0,1,120.48,17h-7.62v1.32H123a1.3,1.3,0,0,1,1.47,1.47A1.3,1.3,0,0,1,123,21.3H115.8A25.05,25.05,0,0,0,122.31,24a2.68,2.68,0,0,1,1.8.9q.42.66-.39,1.74a2.15,2.15,0,0,1-2.52.72,24.58,24.58,0,0,1-8.34-4.59v3.69A1.51,1.51,0,0,1,111.15,28.14Zm-2.91-17.82h5.55q.39-.78,1-2.4h-7.11a14.39,14.39,0,0,1,.9,1.95q.12.36-.3.42Z"/><path class="cls-1" d="M151.86,28.11a2.57,2.57,0,0,1-1.53-.5,2,2,0,0,1-.75-1.24v-.06l0-.06q-.69-1.59,1.29-1.47.42,0,1,0a1.18,1.18,0,0,0,1-.51,8.65,8.65,0,0,0,.69-3.42q.27-2.91.39-9.3a2.48,2.48,0,0,0-.15-1.17.56.56,0,0,0-.54-.27h-2A45.18,45.18,0,0,1,150,19.77,17.16,17.16,0,0,1,146,27a1.78,1.78,0,0,1-2.76-.24,7,7,0,0,0-.78-.78Q135.18,26.73,132,27a1.26,1.26,0,0,1-1-.26,1.71,1.71,0,0,1-.42-1.06q-.24-1.56,1.17-1.65.9-.09,3-.21l1.62-.12v-1.8h-4a1.11,1.11,0,0,1-1.26-1.26,1.11,1.11,0,0,1,1.26-1.26h4V18.24h-3.18a1.85,1.85,0,0,1-1.95-1.95V10.92A1.85,1.85,0,0,1,133.17,9h3.18V7.8h-4.56a1.14,1.14,0,0,1-1.29-1.29,1.14,1.14,0,0,1,1.29-1.29h4.56V4h-.12q-2.52.18-3.75.21A1.38,1.38,0,0,1,131,3.18q-.42-1.44,1.23-1.53A88.24,88.24,0,0,0,142.35.48a1.38,1.38,0,0,1,1,.09,1.93,1.93,0,0,1,.66.75q.93,1.62-.78,2-1.23.18-3.63.48V5.22h4.14a1.45,1.45,0,0,1,1.56,1.56v.09h2.79q0-1.44,0-4.53a1.7,1.7,0,1,1,3.39,0q0,1.65-.06,4.53H156a1.06,1.06,0,0,1,1,.57,5,5,0,0,1,.33,2.28q-.21,8.91-.48,12.24-.3,3.54-1,4.5a3.74,3.74,0,0,1-1.05,1.05,4.79,4.79,0,0,1-1.29.45A15.94,15.94,0,0,1,151.86,28.11ZM134,12.54h2.34V11.22h-1.86a.42.42,0,0,0-.48.48Zm.57,3.48h1.77V14.67H134v.78A.5.5,0,0,0,134.58,16Zm5,7.44q1.68-.12,5.16-.42a15.81,15.81,0,0,0,2.4-5.64,40.82,40.82,0,0,0,.84-7.26h-1.44a1.25,1.25,0,0,1-.92-.35,1.22,1.22,0,0,1-.34-.91V7.8h-5.7V9h3.3a1.85,1.85,0,0,1,1.95,1.95v5.37a1.85,1.85,0,0,1-1.95,1.95h-3.3v1.17h4.11a1.11,1.11,0,0,1,1.26,1.26,1.11,1.11,0,0,1-1.26,1.26h-4.11Zm0-10.92h2.31v-.75a.5.5,0,0,0-.57-.57h-1.74Zm0,3.48h1.83a.42.42,0,0,0,.48-.48v-.87h-2.31Z"/><path class="cls-1" d="M174.87,6.33,169,6.6l-2.16.06q-1.14.06-1.68.06a1.28,1.28,0,0,1-1-.27,1.51,1.51,0,0,1-.33-1A1.23,1.23,0,0,1,165.21,4h.87q.93-1.71,1.32-2.61a1.61,1.61,0,0,1,2.1-1q2,.48.78,2.31-.42.66-.84,1.26l3.63-.09a.12.12,0,0,0,0-.08L173,3.66q-1-1.23.39-2a1.34,1.34,0,0,1,1.77.27A24,24,0,0,1,177.54,5q.6,1-.75,1.83A1.2,1.2,0,0,1,174.87,6.33Zm-9.81,20.55q-1.71-1.23,0-2.55a9.62,9.62,0,0,0,1.62-2.07,1.54,1.54,0,0,1,2.19-.9,1.34,1.34,0,0,1,.87,2,9.84,9.84,0,0,1-1,1.74,10.22,10.22,0,0,1-1.59,1.74A1.64,1.64,0,0,1,165.06,26.88Zm12.27-4.08a15.77,15.77,0,0,0-2-1.5,1,1,0,0,1-.64-.8,1.08,1.08,0,0,1,.43-.91l.06-.06a7.4,7.4,0,0,1-2.25.36,1.5,1.5,0,0,1-1.68-.93q-.57-1.5,1.38-1.44h.18q.45,0,.45-.42v-.9h-4.8v2.22a1.58,1.58,0,0,1-3.15,0V9.78a1.85,1.85,0,0,1,1.95-1.95h7.23a1.85,1.85,0,0,1,2,1.95V17.1a4.38,4.38,0,0,1-.21,1.53,18.11,18.11,0,0,1,3.36,2.07,1.26,1.26,0,0,1,.54,1,1.71,1.71,0,0,1-.61,1,2,2,0,0,1-1.07.62A1.52,1.52,0,0,1,177.33,22.8Zm-8.88-11.61h4.8v-.63a.37.37,0,0,0-.42-.42h-3.66a.64.64,0,0,0-.72.72Zm0,3h4.8V13.11h-4.8Zm7.32,13.62a6.11,6.11,0,0,1-3.66-.78,3.67,3.67,0,0,1-.93-2.91V22.83a1.73,1.73,0,0,1,3.45,0v1.29c0,.38.09.62.28.72a3.38,3.38,0,0,0,1.28.15h4.08a3,3,0,0,0,.51,0q.9-2.22,2.64-1.56a1.32,1.32,0,0,1,.81,1,3.34,3.34,0,0,1,0,1.47A2.67,2.67,0,0,1,183,27.42a5.12,5.12,0,0,1-2.31.42h-4.89Zm6.69-18Q180,9.84,179.1,9a4,4,0,0,1-.81-2.94V2a1.64,1.64,0,0,1,3.27,0v.81a30.44,30.44,0,0,0,4.35-1.47,1.39,1.39,0,0,1,1-.15,2.41,2.41,0,0,1,.87.51q1.53,1.32-.3,2a47,47,0,0,1-5.91,1.59v.84q0,.63.21.78a2.41,2.41,0,0,0,1.11.15h3.75a3,3,0,0,1,1.05-1.32,1.76,1.76,0,0,1,1.59,0q1.17.45.72,2.46a2.47,2.47,0,0,1-1.17,1.35,4.83,4.83,0,0,1-2.1.36Zm0,10.14q-2.52,0-3.39-.81a4.18,4.18,0,0,1-.81-3V11.73a1.64,1.64,0,0,1,3.27,0v1.11a33.52,33.52,0,0,0,4.68-1.56,1.53,1.53,0,0,1,1-.18,2.34,2.34,0,0,1,.9.51c.52.46.75.85.7,1.17s-.38.61-1,.87a45.44,45.44,0,0,1-6.27,1.71v.78q0,.69.21.84a2.51,2.51,0,0,0,1.14.15h3.63a1.79,1.79,0,0,0,.39,0q.81-2.13,2.49-1.47,1.14.45.78,2.46A2.46,2.46,0,0,1,189,19.56a4.49,4.49,0,0,1-2.16.42Zm5.73,7.17a1.66,1.66,0,0,1-1.05-.87,20.91,20.91,0,0,0-2.34-2.76,1.79,1.79,0,0,1-.69-1.32,1.43,1.43,0,0,1,.87-1.11,1.64,1.64,0,0,1,2,.15q1,.81,2,1.89.48.51,1.26,1.47a1.38,1.38,0,0,1-.63,2.16A2.15,2.15,0,0,1,188.22,27.15Z"/><path class="cls-1" d="M198.42,27.36q-1.71-1.71.93-2.34a28.94,28.94,0,0,0,5.49-1.92h-2.43a1.85,1.85,0,0,1-1.95-2V12.87a1.85,1.85,0,0,1,1.95-1.95h4.26A10.3,10.3,0,0,0,205.47,9l-.81.24L198.57,11a1.3,1.3,0,0,1-1.71-1,1.91,1.91,0,0,1-.12-1.2q.15-.45.9-.6l3.66-.81,1.86-.42a2.1,2.1,0,0,1,1.67.18,1.81,1.81,0,0,1,.76,1.35l0,.33a12.86,12.86,0,0,0,4.74-1.59,4.54,4.54,0,0,0,1.86-2.55h-2.13A18.06,18.06,0,0,1,208.83,6a1.66,1.66,0,0,1-2.19.33q-1.59-1,.18-2.46a14,14,0,0,0,2.1-2.7,1.62,1.62,0,0,1,1.92-.81q1.68.3.93,1.74h9.33a1.55,1.55,0,0,1,1.44.61,1.87,1.87,0,0,1-.12,1.7,12.16,12.16,0,0,1-1.29,2.07,1.32,1.32,0,0,1-1.56.33q-1.71-.54-.69-2a.35.35,0,0,0,.07-.11s.06-.08.08-.1h-3.3a4.23,4.23,0,0,0,1.32,2,8.43,8.43,0,0,0,3.21,1.56,5.46,5.46,0,0,1,2.25.87,1.14,1.14,0,0,1,.45,1.65,1.9,1.9,0,0,1-2.16.84,2.74,2.74,0,0,0-.45-.12v9.72a1.85,1.85,0,0,1-1.95,2h-3.21q2.61.9,5.91,2.34,1.41.66,1.29,1.2t-1.68,1.11a3.88,3.88,0,0,1-1,.27,2.06,2.06,0,0,1-1-.27,42.19,42.19,0,0,0-4.17-2c-.86-.34-1.32-.74-1.36-1.19s.28-.88,1-1.3l.33-.18h-8.7l1.47.63c.38.18.59.38.61.6s-.11.43-.43.63a36.47,36.47,0,0,1-7,2.91A1.9,1.9,0,0,1,198.42,27.36Zm.33-22.47a1.19,1.19,0,0,1-1.35-1.35,1.19,1.19,0,0,1,1.35-1.35H204a1.19,1.19,0,0,1,1.35,1.35A1.19,1.19,0,0,1,204,4.89Zm5.13,9.45h12.87V13.05H204.6a.64.64,0,0,0-.72.72Zm0,3.3h12.87V16.35H203.88Zm.57,3.33H216a.64.64,0,0,0,.72-.72v-.6H203.88v.75A.5.5,0,0,0,204.45,21Zm4.26-10h10a8.91,8.91,0,0,1-4.53-3.24A10,10,0,0,1,208.71,10.92Z"/><path class="cls-1" d="M235.65,28.05A1.45,1.45,0,0,1,234,26.43v-9a47.12,47.12,0,0,1-2.1,5.13c-.48.82-.9,1.21-1.26,1.18s-.73-.48-1.11-1.36a2.53,2.53,0,0,1-.25-1.22,2.21,2.21,0,0,1,.46-1.09,28.38,28.38,0,0,0,3.15-6.72h-1.71a1.47,1.47,0,0,1-1.65-1.68,1.46,1.46,0,0,1,1.65-1.65H234V1.86a1.64,1.64,0,0,1,3.27,0v8.19H240a1.46,1.46,0,0,1,1.65,1.65A1.47,1.47,0,0,1,240,13.38h-2.76v.21q1.08,1,3.63,4.2a1.32,1.32,0,0,1,.36,1,2.34,2.34,0,0,1-.54,1c-.48.6-.89.9-1.23.88s-.68-.34-1-1-.72-1.3-1.2-2.1v8.91A1.43,1.43,0,0,1,235.65,28.05Zm-4.5-19a1.11,1.11,0,0,1-.45-1,34,34,0,0,0-.84-4.29,1.13,1.13,0,0,1,.93-1.59q1.2-.33,1.53.75T233,5.46a22.81,22.81,0,0,1,.39,2.25,1.2,1.2,0,0,1-1,1.38A1.64,1.64,0,0,1,231.15,9.09Zm7.62,0q-1.2-.33-.87-1.32.45-1.56,1-4.56a1.27,1.27,0,0,1,1.77-1.14,1.24,1.24,0,0,1,1,1.8q-.24.78-.72,2.28-.06.21-.21.6-.42,1.26-.63,1.8Q239.82,9.42,238.77,9.12Zm13.29,19a1.46,1.46,0,0,1-1.65-1.65V20.61l-6.63,1.2a1.49,1.49,0,0,1-1.95-1.41,1.5,1.5,0,0,1,1.38-1.92l7.2-1.29V1.74a1.65,1.65,0,1,1,3.3,0V16.59l1.35-.27A1.46,1.46,0,0,1,257,17.7a1.52,1.52,0,0,1-1.35,1.95l-1.95.36v6.45A1.46,1.46,0,0,1,252.06,28.11Zm-6.66-14-.78-.6-.27-.21-1.14-.81a1.34,1.34,0,0,1-.45-2.16,1.38,1.38,0,0,1,2-.51,27.84,27.84,0,0,1,2.82,1.92,1.39,1.39,0,0,1,.54.93,1.91,1.91,0,0,1-.36,1.08Q246.78,15.45,245.4,14.13Zm2.4-6.8a1.5,1.5,0,0,1-1.23-.64q-.36-.33-.72-.63L245.73,6q-.84-.69-1.29-1a1.31,1.31,0,0,1-.3-2.07,1.29,1.29,0,0,1,2-.42,25.9,25.9,0,0,1,2.76,2.07,1.3,1.3,0,0,1,.45.9,1.85,1.85,0,0,1-.39,1A1.78,1.78,0,0,1,247.8,7.33Z"/><path class="cls-1" d="M278.58,28.17a1.5,1.5,0,0,1-1.71-1.68V24.93h-7.53a1.27,1.27,0,0,1-1.44-1.44,1.27,1.27,0,0,1,1.44-1.44h7.53V20.64h-4.95A1.85,1.85,0,0,1,270,18.69V13.2a1.85,1.85,0,0,1,1.95-1.95h4.95V9.9h-6.45a1.18,1.18,0,0,1-1.32-1.35,1.17,1.17,0,0,1,1.32-1.32h6.45V5.58h-8.13a.64.64,0,0,0-.72.72v5.85q0,9.21-2.28,14.28a2,2,0,0,1-1,1.05,1.7,1.7,0,0,1-1.34-.39,2,2,0,0,1-.87-1.17,2.26,2.26,0,0,1,.33-1.47,22.21,22.21,0,0,0,1.5-6.18,58.18,58.18,0,0,0,.27-6.12V4.41a1.85,1.85,0,0,1,1.95-1.95h8.67V2a1.85,1.85,0,0,1,3.69,0v.48h9.12A1.38,1.38,0,0,1,289.62,4a1.38,1.38,0,0,1-1.56,1.56h-7.8V7.23h7.29a1.17,1.17,0,0,1,1.32,1.32,1.18,1.18,0,0,1-1.32,1.35h-7.29v1.35h5.31a1.85,1.85,0,0,1,1.95,1.95v5.49a1.85,1.85,0,0,1-1.95,1.95h-5.31v1.41h8.16a1.27,1.27,0,0,1,1.44,1.44,1.27,1.27,0,0,1-1.44,1.44h-8.16v1.56A1.48,1.48,0,0,1,278.58,28.17Zm-5.52-13.26h3.81V13.44h-3.09a.64.64,0,0,0-.72.72Zm.63,3.51h3.18V17h-3.81v.84A.56.56,0,0,0,273.69,18.42Zm6.57-3.51h4v-.84a.56.56,0,0,0-.63-.63h-3.36Zm0,3.51h3.27a.64.64,0,0,0,.72-.72V17h-4Z"/></svg>